<?xml version="1.0"?>
<svg xmlns="http://www.w3.org/2000/svg" xmlns:xlink="http://www.w3.org/1999/xlink" version="1.1" x="0px" y="0px" viewBox="0 0 100 100" enable-background="new 0 0 100 100" xml:space="preserve" width="3200" height="3200"><g display="none"><path display="inline" d="M94.936,32.25l-22.879,8.623v-7.869c0-4.341-3.532-7.873-7.871-7.873H12.937   c-4.339,0-7.872,3.532-7.872,7.873v33.992c0,4.342,3.533,7.873,7.872,7.873h51.249c4.339,0,7.871-3.531,7.871-7.873v-7.629   l22.879,8.357V32.25z M68.908,66.996c0,2.605-2.121,4.723-4.723,4.723H12.937c-2.604,0-4.723-2.117-4.723-4.723V33.004   c0-2.605,2.118-4.724,4.723-4.724h51.249c2.602,0,4.723,2.118,4.723,4.724V66.996z M91.787,63.223L72.22,56.076V44.174   l19.567-7.372V63.223z" fill="#e9e9e9"/></g><g><path d="M87.165,26.958c-1.761-1.501-3.498-2.655-4.812-3.26c0.275-0.594,0.43-1.257,0.43-1.955c0-2.573-2.086-4.661-4.659-4.661   c-0.795,0-1.541,0.2-2.195,0.55c-0.797-1.214-2.234-2.781-4.031-4.316c-3.19-2.722-6.309-4.306-6.963-3.538   c-0.656,0.768,1.398,3.597,4.591,6.32c1.686,1.438,3.35,2.558,4.642,3.181c-0.445,0.715-0.704,1.559-0.704,2.463   c0,0.603,0.116,1.178,0.324,1.707c-6.988,7.52-14.265,11.807-17.685,13.575c-1.996-1.021-4.254-1.601-6.65-1.601   c-1.965,0-3.839,0.391-5.552,1.094c-6.535-2.863-14.313-10.022-17.862-13.495c0.116-0.407,0.18-0.836,0.18-1.28   c0-0.758-0.182-1.473-0.503-2.105c1.273-0.693,2.938-1.977,4.603-3.614c2.99-2.941,4.839-5.91,4.131-6.63   c-0.709-0.719-3.706,1.083-6.696,4.024c-1.618,1.592-2.901,3.19-3.625,4.438c-0.737-0.488-1.619-0.773-2.57-0.773   c-2.574,0-4.661,2.087-4.661,4.661c0,0.757,0.182,1.471,0.503,2.104c-1.268,0.698-2.918,1.971-4.565,3.593   c-2.989,2.942-4.838,5.91-4.13,6.629c0.708,0.72,3.705-1.082,6.694-4.024c1.604-1.577,2.878-3.162,3.607-4.404   c0.733,0.481,1.609,0.762,2.552,0.762c0.544,0,1.065-0.093,1.55-0.265c7.364,6.527,11.731,13.346,13.623,16.703   c-1.208,2.127-1.902,4.585-1.902,7.207c0,2.149,0.468,4.19,1.301,6.028c-2.831,6.402-9.692,13.961-13.189,17.576   c-0.437-0.134-0.901-0.208-1.383-0.208c-0.856,0-1.657,0.231-2.347,0.635c-0.74-1.254-2.202-2.936-4.065-4.59   c-3.138-2.784-6.224-4.429-6.894-3.673c-0.671,0.755,1.33,3.623,4.467,6.408c1.792,1.589,3.565,2.805,4.883,3.418   c-0.447,0.714-0.705,1.558-0.705,2.462c0,2.573,2.087,4.66,4.661,4.66c0.888,0,1.717-0.248,2.423-0.679   c0.803,1.181,2.118,2.638,3.737,4.075c3.137,2.783,6.223,4.427,6.894,3.673c0.67-0.756-1.331-3.624-4.468-6.409   c-1.597-1.415-3.179-2.536-4.438-3.196c0.327-0.638,0.513-1.359,0.513-2.124c0-0.51-0.083-1-0.234-1.459   c6.561-7.419,13.409-11.791,16.693-13.64c2.025,1.063,4.33,1.665,6.775,1.665c2.465,0,4.785-0.612,6.823-1.688   c6.436,3.255,13.808,10.456,17.066,13.828c-0.118,0.411-0.183,0.845-0.183,1.294c0,0.798,0.2,1.55,0.555,2.207   c-1.233,0.737-2.793,2.007-4.345,3.595c-2.932,3-4.724,6.003-4.001,6.709c0.723,0.705,3.685-1.155,6.615-4.154   c1.522-1.558,2.735-3.116,3.45-4.354c0.697,0.417,1.513,0.657,2.386,0.657c2.573,0,4.658-2.087,4.658-4.66   c0-0.783-0.192-1.521-0.534-2.167c1.278-0.696,2.984-2.051,4.682-3.787c2.931-3.001,4.724-6.004,4-6.71   c-0.722-0.706-3.684,1.156-6.615,4.155c-1.639,1.677-2.92,3.354-3.606,4.631c-0.74-0.493-1.629-0.782-2.584-0.782   c-0.535,0-1.048,0.092-1.525,0.257c-7.58-7.034-11.858-14.328-13.539-17.579c0.847-1.85,1.322-3.906,1.322-6.074   c0-2.266-0.516-4.412-1.437-6.327C66.084,36.995,73.9,29.259,77.06,26.28c0.343,0.08,0.698,0.123,1.064,0.123   c1.011,0,1.946-0.323,2.71-0.87c0.808,1.198,2.212,2.719,3.958,4.208c3.191,2.722,6.31,4.306,6.964,3.538   C92.411,32.51,90.354,29.681,87.165,26.958z M21.593,22.73c-0.579,0-1.048-0.47-1.048-1.049c0-0.579,0.47-1.049,1.048-1.049   c0.58,0,1.05,0.47,1.05,1.049C22.643,22.26,22.173,22.73,21.593,22.73z M21.644,79.074c-0.579,0-1.049-0.47-1.049-1.049   s0.47-1.05,1.049-1.05c0.58,0,1.05,0.471,1.05,1.05S22.224,79.074,21.644,79.074z M77.786,77.061c0.58,0,1.05,0.471,1.05,1.049   c0,0.58-0.47,1.051-1.05,1.051c-0.579,0-1.048-0.471-1.048-1.051C76.738,77.531,77.207,77.061,77.786,77.061z M78.159,22.73   c-0.58,0-1.05-0.47-1.05-1.049c0-0.58,0.47-1.05,1.05-1.05c0.579,0,1.048,0.47,1.048,1.05C79.207,22.26,78.738,22.73,78.159,22.73z   " fill="#e9e9e9"/></g></svg>
